<?xml version="1.0" standalone="no"?><!DOCTYPE svg PUBLIC "-//W3C//DTD SVG 1.1//EN" "http://www.w3.org/Graphics/SVG/1.1/DTD/svg11.dtd"><svg t="1607346870855" class="icon" viewBox="0 0 1024 1024" version="1.1" xmlns="http://www.w3.org/2000/svg" p-id="6318" id="mx_n_1607346870858" data-spm-anchor-id="a313x.7781069.0.i32" xmlns:xlink="http://www.w3.org/1999/xlink" width="200" height="200"><defs><style type="text/css"></style></defs><path d="M423.936 341.504v-23.04l65.536-69.12c9.728-11.264 9.728-28.16 0-38.912-4.608-5.12-11.264-8.192-18.432-8.192s-13.824 3.072-18.432 8.192L397.312 268.288 342.016 209.92c-4.608-5.12-11.264-7.68-18.432-7.68s-13.312 3.072-18.432 7.68c-9.728 11.264-9.728 28.16 0 38.912l65.024 69.12v23.04H317.44c-14.848 0-26.624 11.776-26.624 26.624 0 14.848 11.776 26.624 26.624 26.624h53.248v66.56c0 14.336 11.776 26.624 26.624 26.624 14.848 0 26.624-11.776 26.624-26.624V394.24h53.248c14.848 0 26.624-11.776 26.624-26.624 0-14.848-11.776-26.624-26.624-26.624l-53.248 0.512z" fill="#FFA500" p-id="6319" data-spm-anchor-id="a313x.7781069.0.i31" class=""></path><path d="M727.552 386.048h-148.48c-11.264 0-20.992-12.8-20.992-28.16 0-15.872 9.216-28.16 20.992-28.16h148.48c11.264 0 20.992 12.8 20.992 28.16 0 15.872-9.216 28.16-20.992 28.16zM727.552 258.56h-148.48c-11.264 0-20.992-12.8-20.992-28.16 0-15.872 9.216-28.16 20.992-28.16h148.48c11.264 0 20.992 12.8 20.992 28.16s-9.216 28.16-20.992 28.16z" fill="#FFA500" p-id="6320" data-spm-anchor-id="a313x.7781069.0.i33" class=""></path><path d="M837.12 101.888c-18.944-18.944-44.544-29.696-71.68-29.696H260.096C203.776 72.192 158.72 117.76 158.72 173.568v607.232c0 26.624 10.752 52.736 29.696 71.68 18.944 18.944 44.544 29.696 71.68 29.696h505.856c26.624 0 52.736-10.752 71.68-29.696 18.944-18.944 29.696-44.544 29.696-71.68V173.568c-0.512-27.136-10.752-52.736-30.208-71.68z m-20.48 678.912c0 28.16-22.528 50.688-50.688 50.688H260.096c-28.16 0-50.688-22.528-50.688-50.688V173.568c0-13.312 5.12-26.112 14.848-35.84 9.728-9.728 22.528-14.848 35.84-14.848h505.856c28.16 0 50.688 22.528 50.688 50.688v607.232z" fill="#FFA500" p-id="6321"></path><path d="M727.552 506.88h-148.48c-11.264 0-20.992-12.8-20.992-28.16 0-15.872 9.216-28.16 20.992-28.16h148.48c11.264 0 20.992 12.8 20.992 28.16s-9.216 28.16-20.992 28.16zM724.48 637.44h-419.84c-13.312 0-24.064-12.8-24.064-28.16 0-15.872 10.752-28.16 24.064-28.16h419.84c13.312 0 24.064 12.8 24.064 28.16s-10.752 28.16-24.064 28.16zM724.48 762.88h-419.84c-13.312 0-24.064-12.8-24.064-28.16 0-15.872 10.752-28.16 24.064-28.16h419.84c13.312 0 24.064 12.8 24.064 28.16 0 15.872-10.752 28.16-24.064 28.16z" fill="#FFA500" p-id="6322"></path></svg>