<?xml version="1.0" standalone="no"?><!DOCTYPE svg PUBLIC "-//W3C//DTD SVG 1.1//EN" "http://www.w3.org/Graphics/SVG/1.1/DTD/svg11.dtd"><svg t="1607346467650" class="icon" viewBox="0 0 1024 1024" version="1.1" xmlns="http://www.w3.org/2000/svg" p-id="1482" xmlns:xlink="http://www.w3.org/1999/xlink" width="200" height="200"><defs><style type="text/css"></style></defs><path d="M535.466667 96l420.266666 396.8c17.066667 17.066667 17.066667 42.666667 2.133334 59.733333-8.533333 8.533333-19.2 12.8-32 12.8h-78.933334v320c0 23.466667-19.2 42.666667-42.666666 42.666667h-149.333334c-23.466667 0-42.666667-19.2-42.666666-42.666667v-189.866666c0-23.466667-19.2-42.666667-42.666667-42.666667h-128c-23.466667 0-42.666667 19.2-42.666667 42.666667v189.866666c0 23.466667-19.2 42.666667-42.666666 42.666667h-149.333334c-23.466667 0-42.666667-19.2-42.666666-42.666667v-320H85.333333c-23.466667 0-42.666667-19.2-42.666666-42.666666 0-12.8 4.266667-23.466667 12.8-32L477.866667 96c14.933333-14.933333 40.533333-14.933333 57.6 0zM505.6 128L85.333333 524.8h121.6v362.666667h149.333334v-189.866667c0-44.8 36.266667-83.2 81.066666-85.333333h132.266667c44.8 0 83.2 36.266667 85.333333 81.066666v194.133334h149.333334v-362.666667h121.6L505.6 128zM576 448c12.8 0 21.333333 8.533333 21.333333 21.333333s-8.533333 21.333333-21.333333 21.333334h-128c-12.8 0-21.333333-8.533333-21.333333-21.333334s8.533333-21.333333 21.333333-21.333333h128z" fill="#2de52a" p-id="1483"></path></svg>