<?xml version="1.0" standalone="no"?><!DOCTYPE svg PUBLIC "-//W3C//DTD SVG 1.1//EN" "http://www.w3.org/Graphics/SVG/1.1/DTD/svg11.dtd"><svg t="1607346654754" class="icon" viewBox="0 0 1024 1024" version="1.1" xmlns="http://www.w3.org/2000/svg" p-id="3317" xmlns:xlink="http://www.w3.org/1999/xlink" width="200" height="200"><defs><style type="text/css"></style></defs><path d="M951.4 797.5L563.8 409.9c10.2-11 9.9-28.1-0.8-38.8l-32.4-32.4c12.1-74.4-11.9-149.4-65.6-203.1C420.8 91.4 362 67 299.4 67c-29.3 0-57.9 5.4-85.1 15.9-8.8 3.4-15.3 11.1-17.3 20.3-1.9 9.3 0.9 18.9 7.6 25.6l126.7 126.7-74.4 74.4-128.1-128.1c-6.6-6.6-16-9.5-25.2-7.7-9.2 1.8-16.8 8.1-20.4 16.7-37 88.1-17.2 188.8 50.4 256.3 44.2 44.3 103.1 68.6 165.7 68.6 14.2 0 28.5-1.3 42.4-3.8l30.3 30.3c10.7 10.7 27.8 10.9 38.8 0.8l387.6 387.6c5.5 5.5 12.6 8.2 19.8 8.2 7.2 0 14.3-2.7 19.8-8.2l113.4-113.4c10.9-11 10.9-28.8 0-39.7z m-133.2 93.6L435.9 508.9l37.6-37.6c7.3-7.3 7.3-19.1 0-26.4-7.3-7.3-19.1-7.3-26.4 0l-56.6 56.6-20-20c-7-7-17.2-9.8-26.7-7.3-14.5 3.7-29.5 5.6-44.5 5.6-47.6 0-92.4-18.5-126.1-52.2-40.8-40.8-58.7-97.4-50.4-152.5l114.3 114.3c10.9 11 28.6 11 39.6 0L390.2 276l0.7-0.7c10.8-10.9 10.7-28.6-0.2-39.4L279.2 124.2c6.7-0.7 13.4-1.1 20.2-1.1 47.6 0 92.4 18.5 126.1 52.2 43.8 43.8 61.5 106 47.6 166.5-2.1 9.4 0.7 19.3 7.5 26.1l23.2 23.1c-10.2 11-9.9 28.1 0.8 38.8L892 817.3 868.3 841 565.8 538.5c-7.3-7.3-19.1-7.3-26.4 0-7.3 7.3-7.3 19.1 0 26.4l302.5 302.5-23.7 23.7z" fill="#1296db" p-id="3318"></path><path d="M395.3 321.8l-74.4 74.4c-7.3 7.3-7.3 19.1 0 26.4 3.7 3.6 8.4 5.5 13.2 5.5s9.5-1.8 13.2-5.5l74.4-74.4c7.3-7.3 7.3-19.1 0-26.4-7.4-7.3-19.2-7.3-26.4 0z" fill="#1296db" p-id="3319"></path></svg>